# xmcd
#
# Track frame offsets:
# 150
# 11719
# 33628
# 58137
# 75099
# 91756
# 113916
# 139822
# 158555
# 188638
# 203625
# 226825
# 248607
# 267965
# 283705
# 307248
# 323199
# 344920
#
# Disc length: 4771 seconds
#
# Revision: 0
# Processed by: cddbd v1.5.2PL0 Copyright (c) Steve Scherf et al.
# Submitted via: Audion 3.0.2 (http://www.panic.com/audion/)
#
DISCID=f712a112
DTITLE=Tom Waits - Small Change
DYEAR=1900
DGENRE=
TTITLE0=Tom Traubert's Blues
TTITLE1=Step Right Up
TTITLE2=Jitterbug Boy
TTITLE3=I Wish I Was In New Orleans
TTITLE4=The Piano Has Been Drinking
TTITLE5=Invitation To The Blues
TTITLE6=Pasties And A G-String
TTITLE7=Bad Liver And A Broken Heart
TTITLE8=The One That Got Away
TTITLE9=Small Change
TTITLE10=I Can't Wait To Get Off Work
TTITLE11=b
TTITLE12=n
TTITLE13=n
TTITLE14=n
TTITLE15=m
TTITLE16=,
TTITLE17=
EXTD=
EXTT0=
EXTT1=
EXTT2=
EXTT3=
EXTT4=
EXTT5=
EXTT6=
EXTT7=
EXTT8=
EXTT9=
EXTT10=
EXTT11=
EXTT12=
EXTT13=
EXTT14=
EXTT15=
EXTT16=
EXTT17=
PLAYORDER=
